<svg width="45" height="43" viewBox="0 0 45 43" fill="none" xmlns="http://www.w3.org/2000/svg">
<path d="M0.5 4.3125C0.5 2.65835 1.74663 1.375 3.21429 1.375H41.7857C43.2561 1.375 44.5 2.65803 44.5 4.3125C44.5 5.96987 43.2564 7.25 41.7857 7.25H3.21429C1.74634 7.25 0.5 5.96956 0.5 4.3125ZM0.5 21.5C0.5 19.8429 1.74634 18.5625 3.21429 18.5625H41.7857C43.2564 18.5625 44.5 19.8426 44.5 21.5C44.5 23.1574 43.2564 24.4375 41.7857 24.4375H3.21429C1.74634 24.4375 0.5 23.1571 0.5 21.5ZM41.7857 41.625H3.21429C1.74634 41.625 0.5 40.3446 0.5 38.6875C0.5 37.0304 1.74634 35.75 3.21429 35.75H41.7857C43.2564 35.75 44.5 37.0301 44.5 38.6875C44.5 40.3449 43.2564 41.625 41.7857 41.625Z" fill="#6DD47E" stroke="black"/>
</svg>
