<svg width="43" height="45" viewBox="0 0 43 45" fill="none" xmlns="http://www.w3.org/2000/svg">
<path d="M33.8289 19.8125H34.9054L34.2109 18.9899L28.0425 11.6839C27.1497 10.6249 27.1497 8.88005 28.0425 7.82113C28.4784 7.3041 29.0293 7.06518 29.5599 7.06499C30.0905 7.0648 30.6416 7.30322 31.0783 7.82113L41.8283 20.5711C42.7208 21.6297 42.7216 23.3703 41.8333 24.4329C41.8332 24.4331 41.833 24.4332 41.8329 24.4334L31.0842 37.1819C30.6479 37.6993 30.0969 37.938 29.5663 37.938C29.0357 37.938 28.4847 37.6993 28.0484 37.1819C27.1556 36.1229 27.1556 34.3781 28.0484 33.3191L34.2112 26.0098L34.9045 25.1875H33.8289H16.125C14.9919 25.1875 13.9375 24.0702 13.9375 22.5C13.9375 20.9297 14.9912 19.8125 16.125 19.8125H33.8289ZM8.0625 38.9375H13.4375C14.5711 38.9375 15.625 40.0574 15.625 41.625C15.625 43.1923 14.5688 44.3125 13.4375 44.3125H8.0625C3.96234 44.3125 0.5 40.3385 0.5 35.25V9.75C0.5 4.66151 3.96234 0.6875 8.0625 0.6875H13.4375C14.5711 0.6875 15.625 1.80737 15.625 3.375C15.625 4.9423 14.5688 6.0625 13.4375 6.0625H8.0625C6.2258 6.0625 4.875 7.79711 4.875 9.75V35.25C4.875 37.2029 6.2258 38.9375 8.0625 38.9375Z" fill="#6DD47E" stroke="black"/>
</svg>
