<svg width="66" height="53" viewBox="0 0 66 53" fill="none" xmlns="http://www.w3.org/2000/svg">
<path d="M25.2812 3.0625C25.2812 3.92545 24.3717 4.625 23.2499 4.625L13.0937 4.625C10.85 4.625 9.03115 6.02411 9.03115 7.75V45.25C9.03115 46.9759 10.85 48.375 13.0937 48.375H23.2499C24.3717 48.375 25.2812 49.0746 25.2812 49.9375C25.2812 50.8004 24.3717 51.5 23.2499 51.5H13.0937C8.60634 51.5 4.96865 48.7018 4.96865 45.25V7.75C4.96865 4.29822 8.60633 1.5 13.0937 1.5L23.2499 1.5C24.3717 1.5 25.2812 2.19956 25.2812 3.0625Z" fill="#6DD47E"/>
<path d="M17.3449 25.3951C16.5517 26.0053 16.5517 26.9947 17.3449 27.6049L29.5324 36.9799C30.3257 37.59 31.6118 37.59 32.4051 36.9799C33.1983 36.3697 33.1983 35.3803 32.4051 34.7701L23.6851 28.0625L59.4062 28.0625C60.5281 28.0625 61.4375 27.3629 61.4375 26.5C61.4375 25.6371 60.5281 24.9375 59.4062 24.9375L23.6851 24.9375L32.4051 18.2299C33.1983 17.6197 33.1983 16.6303 32.4051 16.0201C31.6118 15.41 30.3257 15.41 29.5324 16.0201L17.3449 25.3951Z" fill="#6DD47E"/>
<path d="M17.3449 27.6049L17.9546 26.8122L17.3449 27.6049ZM17.3449 25.3951L17.9546 26.1878L17.3449 25.3951ZM29.5324 36.9799L30.1422 36.1872L29.5324 36.9799ZM32.4051 36.9799L31.7953 36.1872L32.4051 36.9799ZM32.4051 34.7701L31.7953 35.5628L32.4051 34.7701ZM23.6851 28.0625V27.0625C23.2569 27.0625 22.8763 27.3351 22.7384 27.7405C22.6005 28.1459 22.736 28.5941 23.0754 28.8551L23.6851 28.0625ZM23.6851 24.9375L23.0754 24.1449C22.736 24.4059 22.6005 24.8541 22.7384 25.2595C22.8763 25.6649 23.2569 25.9375 23.6851 25.9375V24.9375ZM32.4051 18.2299L31.7953 17.4372L32.4051 18.2299ZM32.4051 16.0201L31.7953 16.8128L32.4051 16.0201ZM29.5324 16.0201L30.1422 16.8128L29.5324 16.0201ZM23.2499 5.625C24.0123 5.625 24.739 5.38839 25.2959 4.95998C25.8539 4.53073 26.2812 3.86849 26.2812 3.0625H24.2812C24.2812 3.11946 24.2536 3.23847 24.0765 3.37473C23.8983 3.51183 23.6094 3.625 23.2499 3.625V5.625ZM13.0937 5.625H23.2499V3.625L13.0937 3.625V5.625ZM10.0312 7.75C10.0312 7.26157 10.286 6.75194 10.8307 6.33292C11.3766 5.91306 12.1733 5.625 13.0937 5.625V3.625C11.7704 3.625 10.5358 4.03649 9.61132 4.74767C8.68571 5.45967 8.03115 6.51254 8.03115 7.75H10.0312ZM10.0312 45.25V7.75H8.03115V45.25H10.0312ZM13.0937 47.375C12.1733 47.375 11.3766 47.0869 10.8307 46.6671C10.286 46.2481 10.0312 45.7384 10.0312 45.25H8.03115C8.03115 46.4875 8.68571 47.5403 9.61132 48.2523C10.5358 48.9635 11.7704 49.375 13.0937 49.375V47.375ZM23.2499 47.375H13.0937V49.375H23.2499V47.375ZM26.2812 49.9375C26.2812 49.1315 25.8539 48.4693 25.2959 48.04C24.739 47.6116 24.0123 47.375 23.2499 47.375V49.375C23.6094 49.375 23.8983 49.4882 24.0765 49.6253C24.2536 49.7615 24.2812 49.8805 24.2812 49.9375H26.2812ZM23.2499 52.5C24.0123 52.5 24.739 52.2634 25.2959 51.835C25.8539 51.4057 26.2812 50.7435 26.2812 49.9375H24.2812C24.2812 49.9945 24.2536 50.1135 24.0765 50.2497C23.8983 50.3868 23.6094 50.5 23.2499 50.5V52.5ZM13.0937 52.5H23.2499V50.5H13.0937V52.5ZM3.96865 45.25C3.96865 47.3504 5.07792 49.1845 6.7387 50.462C8.39839 51.7387 10.6485 52.5 13.0937 52.5V50.5C11.0515 50.5 9.2391 49.8622 7.95812 48.8768C6.67822 47.8923 5.96865 46.6014 5.96865 45.25H3.96865ZM3.96865 7.75V45.25H5.96865V7.75H3.96865ZM13.0937 0.5C10.6485 0.5 8.39839 1.26127 6.7387 2.53796C5.07792 3.81548 3.96865 5.6496 3.96865 7.75H5.96865C5.96865 6.39863 6.67822 5.10774 7.95812 4.12321C9.2391 3.13784 11.0515 2.5 13.0937 2.5V0.5ZM23.2499 0.5L13.0937 0.5V2.5H23.2499V0.5ZM26.2812 3.0625C26.2812 2.25651 25.8539 1.59427 25.2959 1.16502C24.739 0.736606 24.0123 0.5 23.2499 0.5V2.5C23.6094 2.5 23.8983 2.61317 24.0765 2.75027C24.2536 2.88653 24.2812 3.00554 24.2812 3.0625H26.2812ZM17.9546 26.8122C17.7707 26.6707 17.75 26.5495 17.75 26.5C17.75 26.4505 17.7707 26.3293 17.9546 26.1878L16.7352 24.6025C16.1259 25.0712 15.75 25.7498 15.75 26.5C15.75 27.2502 16.1259 27.9288 16.7352 28.3975L17.9546 26.8122ZM30.1422 36.1872L17.9546 26.8122L16.7352 28.3975L28.9227 37.7725L30.1422 36.1872ZM31.7953 36.1872C31.3615 36.5209 30.576 36.5209 30.1422 36.1872L28.9227 37.7725C30.0754 38.6592 31.8621 38.6592 33.0148 37.7725L31.7953 36.1872ZM31.7953 35.5628C31.9793 35.7043 32 35.8255 32 35.875C32 35.9245 31.9793 36.0457 31.7953 36.1872L33.0148 37.7725C33.6241 37.3038 34 36.6252 34 35.875C34 35.1248 33.6241 34.4462 33.0148 33.9775L31.7953 35.5628ZM23.0754 28.8551L31.7953 35.5628L33.0148 33.9775L24.2948 27.2699L23.0754 28.8551ZM59.4062 27.0625L23.6851 27.0625V29.0625L59.4062 29.0625V27.0625ZM60.4375 26.5C60.4375 26.557 60.41 26.676 60.2328 26.8122C60.0546 26.9493 59.7657 27.0625 59.4062 27.0625V29.0625C60.1686 29.0625 60.8953 28.8259 61.4523 28.3975C62.0103 27.9682 62.4375 27.306 62.4375 26.5H60.4375ZM59.4062 25.9375C59.7657 25.9375 60.0546 26.0507 60.2328 26.1878C60.41 26.324 60.4375 26.443 60.4375 26.5H62.4375C62.4375 25.694 62.0103 25.0318 61.4523 24.6025C60.8953 24.1741 60.1686 23.9375 59.4062 23.9375V25.9375ZM23.6851 25.9375L59.4062 25.9375V23.9375L23.6851 23.9375V25.9375ZM31.7953 17.4372L23.0754 24.1449L24.2948 25.7301L33.0148 19.0225L31.7953 17.4372ZM31.7953 16.8128C31.9793 16.9543 32 17.0755 32 17.125C32 17.1745 31.9793 17.2957 31.7953 17.4372L33.0148 19.0225C33.6241 18.5538 34 17.8752 34 17.125C34 16.3748 33.6241 15.6962 33.0148 15.2275L31.7953 16.8128ZM30.1422 16.8128C30.576 16.4791 31.3615 16.4791 31.7953 16.8128L33.0148 15.2275C31.8621 14.3408 30.0754 14.3408 28.9227 15.2275L30.1422 16.8128ZM17.9546 26.1878L30.1422 16.8128L28.9227 15.2275L16.7352 24.6025L17.9546 26.1878Z" fill="black"/>
</svg>
