<svg width="45" height="44" viewBox="0 0 45 44" fill="none" xmlns="http://www.w3.org/2000/svg">
<path d="M10.373 29.7852L10.288 29.9278L8.85165 32.3399C8.15349 33.5123 8.56344 35.0251 9.77023 35.698C10.9526 36.3628 12.491 35.9831 13.1868 34.8038C13.187 34.8035 13.1872 34.8031 13.1875 34.8027L15.1248 31.5529L15.3077 31.2461L15.0767 30.9736C14.6226 30.4377 14.1047 30.0361 13.5224 29.7852H26.7087H27.003L27.1458 29.5279C27.466 28.9513 27.5645 28.3063 27.4868 27.6877C27.5916 27.8644 27.6979 28.0436 27.8057 28.2251C28.945 30.1451 30.2468 32.3389 31.7131 34.8044L31.7133 34.8046C32.4077 35.9708 33.9339 36.3639 35.1283 35.6985L35.1303 35.6974C36.3231 35.026 36.7468 33.5259 36.0491 32.3419L36.048 32.3401L34.5286 29.7852H36.5625C37.9285 29.7852 39.0714 28.7069 39.0714 27.332C39.0714 25.9685 37.9302 24.8789 36.5625 24.8789H31.6236C29.5668 21.4211 27.9225 18.6502 26.6857 16.566C26.3839 16.0574 26.1063 15.5896 25.853 15.1628L25.5594 14.6682L25.1105 15.0277C24.957 15.1505 24.8049 15.2983 24.6583 15.4681L27.2388 11.123C27.9369 9.95059 27.527 8.43778 26.3202 7.7649C25.1377 7.1 23.5991 7.47986 22.9034 8.65935C22.9033 8.65964 22.9031 8.65993 22.9029 8.66022L22.4397 9.43944L21.9756 8.65858L21.9754 8.65824C21.2809 7.49208 19.7547 7.09904 18.5603 7.76436L18.5583 7.76545C17.3655 8.43687 16.9418 9.93696 17.6395 11.121L17.6407 11.1231L19.5477 14.3245L13.2758 24.8789H8.4375C7.06982 24.8789 5.92857 25.9685 5.92857 27.332C5.92857 28.6956 7.06982 29.7852 8.4375 29.7852H10.373ZM24.4286 24.8789H19.0693L23.7998 16.9137C23.2201 18.3705 23.1229 20.3409 24.2796 22.2939L24.2806 22.2955C24.8145 23.1889 25.4327 24.2281 26.136 25.4122C25.6644 25.0822 25.0866 24.8789 24.4286 24.8789ZM4.82143 0.625H40.1786C42.5776 0.625 44.5 2.51394 44.5 4.8125V39.1875C44.5 41.4861 42.5776 43.375 40.1786 43.375H4.82143C2.42237 43.375 0.5 41.4861 0.5 39.1875V4.8125C0.5 2.51394 2.42237 0.625 4.82143 0.625Z" fill="#6DD47E" stroke="black"/>
</svg>
