<svg width="55" height="60" viewBox="0 0 55 60" fill="none" xmlns="http://www.w3.org/2000/svg">
<path d="M32.7468 29.6253L32.7473 29.6249C33.7926 28.7578 34.915 27.8004 35.7673 26.5281C36.6293 25.2414 37.2048 23.651 37.2048 21.5277C37.2048 18.5523 36.0465 16.3072 34.229 14.8154C32.4244 13.3341 30.0077 12.625 27.5185 12.625C25.2644 12.625 22.8662 13.197 20.9779 14.6288C19.073 16.0731 17.7345 18.3576 17.5651 21.6725C17.5255 22.4471 18.1169 23.1227 18.8937 23.1227H21.7278C22.5275 23.1227 23.0548 22.4329 23.1398 21.7491C23.2821 20.604 23.7082 19.6543 24.3803 18.9946C25.0462 18.3409 25.9922 17.9335 27.2567 17.9335C28.3508 17.9335 29.3541 18.2323 30.0753 18.8442C30.7833 19.445 31.2734 20.3926 31.2734 21.8134C31.2734 22.8968 30.9858 23.6616 30.4738 24.355C29.9429 25.0742 29.1677 25.7242 28.1428 26.5658C25.7834 28.4362 23.8048 30.7125 23.942 34.418L23.9522 35.2248C23.9615 35.9701 24.5284 36.6432 25.3114 36.6432H28.0993C28.8901 36.6432 29.4587 35.9578 29.4587 35.2057V34.8102C29.4587 33.5327 29.679 32.7733 30.155 32.0869C30.658 31.3617 31.4613 30.6892 32.7468 29.6253ZM0.5 7.5C0.5 3.59216 3.39425 0.5 6.875 0.5H48.125C51.6058 0.5 54.5 3.59216 54.5 7.5V52.5C54.5 56.4078 51.6058 59.5 48.125 59.5H6.875C3.39425 59.5 0.5 56.4078 0.5 52.5V7.5ZM22.9164 43.3081C22.9164 45.5819 24.6003 47.2834 26.8857 47.2834C29.2544 47.2834 30.9206 45.586 30.9206 43.3081C30.9206 42.1538 30.5172 41.1414 29.7923 40.4165C29.0672 39.6914 28.0518 39.2852 26.8857 39.2852C24.598 39.2852 22.9164 40.9652 22.9164 43.3081Z" fill="#6DD47E" stroke="black" stroke-linejoin="round"/>
</svg>
