<svg width="44" height="54" viewBox="0 0 44 54" fill="none" xmlns="http://www.w3.org/2000/svg">
<path d="M2.65611 51.1495L2.65549 51.149C1.64405 50.441 1.25098 49.6031 1.25098 48.875C1.25098 48.1469 1.64405 47.309 2.65549 46.601L29.4952 27.8193L30.6659 27.0001L29.4953 26.1807L2.65549 7.39561C2.65547 7.3956 2.65546 7.39558 2.65544 7.39557C1.64403 6.68757 1.25098 5.84966 1.25098 5.12158C1.25098 4.39349 1.64405 3.55556 2.65549 2.84755C3.67677 2.13266 5.06513 1.74658 6.50098 1.74658C7.93683 1.74658 9.32518 2.13266 10.3465 2.84755L41.5965 24.7225C42.6079 25.4306 43.001 26.2685 43.001 26.9966C43.001 27.7247 42.6079 28.5626 41.5965 29.2706L10.3465 51.1456L10.3434 51.1478C9.32467 51.8666 7.93804 52.25 6.5 52.25C5.06374 52.25 3.67494 51.8638 2.65611 51.1495Z" fill="#6DD47E" stroke="black" stroke-width="2"/>
</svg>
